<svg width="12.000000" height="12.000000" viewBox="0 0 12 12" fill="none" xmlns="http://www.w3.org/2000/svg" xmlns:xlink="http://www.w3.org/1999/xlink">
	<desc>
			Created with Pixso.
	</desc>
	<defs/>
	<path id="Vector" d="M6 0C2.69 0 0 2.69 0 6C0 9.3 2.69 12 6 12C9.3 12 12 9.3 12 6C12 2.69 9.3 0 6 0ZM5.64 2.94C5.11 2.92 4.58 2.84 4.07 2.72C4.15 2.53 4.24 2.34 4.34 2.17C4.72 1.46 5.2 0.95 5.64 0.77L5.64 2.94ZM5.64 3.64L5.64 5.64L3.45 5.64C3.48 4.86 3.61 4.09 3.83 3.38C4.41 3.53 5.03 3.62 5.64 3.64ZM5.64 6.35L5.64 8.35C5.03 8.37 4.41 8.46 3.83 8.61C3.61 7.9 3.48 7.13 3.45 6.35L5.64 6.35ZM5.64 9.05L5.64 11.22C5.2 11.04 4.72 10.53 4.34 9.82C4.24 9.65 4.15 9.46 4.07 9.27C4.58 9.15 5.11 9.07 5.64 9.05ZM6.35 9.05C6.88 9.07 7.41 9.15 7.92 9.27C7.84 9.46 7.75 9.65 7.65 9.82C7.27 10.53 6.79 11.04 6.35 11.22L6.35 9.05ZM6.35 8.35L6.35 6.35L8.54 6.35C8.51 7.13 8.38 7.9 8.16 8.61C7.58 8.46 6.96 8.37 6.35 8.35ZM6.35 5.64L6.35 3.64C6.96 3.62 7.58 3.53 8.16 3.38C8.38 4.09 8.51 4.86 8.54 5.64L6.35 5.64ZM6.35 2.94L6.35 0.77C6.79 0.95 7.27 1.46 7.65 2.17C7.75 2.34 7.84 2.53 7.92 2.72C7.41 2.84 6.88 2.92 6.35 2.94ZM8.27 1.84C8.1 1.51 7.9 1.22 7.7 0.98C8.41 1.22 9.04 1.6 9.58 2.1C9.27 2.26 8.94 2.4 8.6 2.52C8.5 2.28 8.39 2.05 8.27 1.84ZM3.72 1.84C3.6 2.05 3.49 2.28 3.39 2.52C3.05 2.4 2.72 2.26 2.41 2.1C2.95 1.6 3.58 1.22 4.29 0.98C4.09 1.22 3.89 1.51 3.72 1.84ZM3.16 3.18C2.92 3.95 2.77 4.79 2.74 5.64L0.71 5.64C0.79 4.5 1.22 3.46 1.91 2.62C2.29 2.84 2.71 3.03 3.16 3.18ZM2.74 6.35C2.77 7.2 2.92 8.04 3.16 8.81C2.71 8.96 2.29 9.15 1.91 9.37C1.22 8.53 0.79 7.49 0.71 6.35L2.74 6.35ZM3.39 9.47C3.49 9.71 3.6 9.94 3.72 10.15C3.89 10.48 4.09 10.77 4.29 11.01C3.58 10.77 2.95 10.39 2.41 9.89C2.72 9.73 3.05 9.59 3.39 9.47ZM8.27 10.15C8.39 9.94 8.5 9.71 8.6 9.47C8.94 9.59 9.27 9.73 9.58 9.89C9.04 10.39 8.41 10.77 7.7 11.01C7.9 10.77 8.1 10.48 8.27 10.15ZM8.83 8.81C9.07 8.04 9.22 7.2 9.25 6.35L11.28 6.35C11.2 7.49 10.77 8.53 10.08 9.37C9.7 9.15 9.28 8.96 8.83 8.81ZM9.25 5.64C9.22 4.79 9.07 3.95 8.83 3.18C9.28 3.03 9.7 2.84 10.08 2.62C10.77 3.46 11.2 4.5 11.28 5.64L9.25 5.64Z" fill="#F6762C" fill-opacity="1.000000" fill-rule="nonzero"/>
</svg>
