<svg width="47.000000" height="46.000244" viewBox="0 0 47 46.0002" fill="none" xmlns="http://www.w3.org/2000/svg" xmlns:xlink="http://www.w3.org/1999/xlink">
	<desc>
			Created with Pixso.
	</desc>
	<defs/>
	<g opacity="0.100000">
		<circle id="Ellipse 15" cx="25.500000" cy="21.500000" r="21.500000" fill="#F6762C" fill-opacity="1.000000"/>
	</g>
	<path id="Vector" d="M12.8 14.69L4.26 14.69C3.08 14.69 2.07 15.1 1.24 15.93C0.41 16.76 0 17.77 0 18.96L0 27.5C0 28.68 0.41 29.69 1.24 30.52C2.07 31.35 3.08 31.76 4.26 31.76L9.25 31.76C9.84 31.76 10.34 31.97 10.76 32.39C11.17 32.8 11.38 33.31 11.38 33.9L11.38 34.61C11.38 36.18 10.82 37.52 9.71 38.63C8.6 39.75 7.26 40.3 5.69 40.3L4.26 40.3C3.88 40.3 3.55 40.44 3.26 40.72C2.98 41.01 2.84 41.34 2.84 41.73L2.84 44.57C2.84 44.96 2.98 45.29 3.26 45.57C3.55 45.85 3.88 46 4.26 46L5.69 46C7.23 46 8.7 45.69 10.1 45.09C11.5 44.49 12.71 43.68 13.74 42.66C14.76 41.64 15.57 40.42 16.17 39.02C16.77 37.62 17.07 36.15 17.07 34.61L17.07 18.96C17.07 17.77 16.66 16.76 15.83 15.93C15 15.1 13.99 14.69 12.8 14.69Z" fill="#F6762C" fill-opacity="1.000000" fill-rule="nonzero"/>
	<path id="Vector" d="M35.75 15.93C34.92 15.1 33.91 14.69 32.73 14.69L24.19 14.69C23 14.69 21.99 15.1 21.16 15.93C20.33 16.76 19.92 17.77 19.92 18.96L19.92 27.5C19.92 28.68 20.33 29.69 21.16 30.52C21.99 31.35 23 31.76 24.19 31.76L29.17 31.76C29.76 31.76 30.27 31.97 30.68 32.39C31.09 32.8 31.3 33.31 31.3 33.9L31.3 34.61C31.3 36.18 30.75 37.52 29.63 38.63C28.52 39.75 27.18 40.3 25.61 40.3L24.19 40.3C23.8 40.3 23.47 40.44 23.19 40.72C22.9 41.01 22.76 41.34 22.76 41.73L22.76 44.57C22.76 44.96 22.9 45.29 23.19 45.57C23.47 45.85 23.8 46 24.19 46L25.61 46C27.15 46 28.62 45.69 30.02 45.09C31.42 44.49 32.64 43.68 33.66 42.66C34.68 41.64 35.49 40.42 36.09 39.02C36.69 37.62 37 36.15 37 34.61L37 18.96C36.99 17.77 36.58 16.76 35.75 15.93Z" fill="#F6762C" fill-opacity="1.000000" fill-rule="nonzero"/>
</svg>
