<svg width="12.000000" height="9.140625" viewBox="0 0 12 9.14062" fill="none" xmlns="http://www.w3.org/2000/svg" xmlns:xlink="http://www.w3.org/1999/xlink">
	<desc>
			Created with Pixso.
	</desc>
	<defs/>
	<path id="Vector" d="M10.94 0L1.05 0C0.47 0 0 0.47 0 1.05L0 8.08C0 8.66 0.47 9.14 1.05 9.14L10.94 9.14C11.52 9.14 12 8.66 12 8.08L12 1.05C12 0.47 11.52 0 10.94 0ZM10.79 0.7L6.02 5.48L1.2 0.7L10.79 0.7ZM0.7 7.94L0.7 1.19L4.08 4.55L0.7 7.94ZM1.2 8.43L4.58 5.04L5.77 6.22C5.91 6.36 6.13 6.36 6.27 6.22L7.42 5.06L10.79 8.43L1.2 8.43ZM11.29 7.94L7.92 4.57L11.29 1.2L11.29 7.94Z" fill="#F6762C" fill-opacity="1.000000" fill-rule="nonzero"/>
</svg>
